<svg width="1058" height="785" viewBox="0 0 1058 785" fill="none" xmlns="http://www.w3.org/2000/svg">
<g id="undraw_Ride_a_bicycle_2yok 1" clip-path="url(#clip0)">
<path id="background" d="M200.72 115.137C195.24 121.787 193.13 131.136 190.77 139.926C171.77 210.766 124.95 267.747 71.63 308.447C49.05 325.687 21.56 348.806 26.5 379.716C29.16 396.316 40.83 408.536 49.5 422.056C67.69 450.366 73.59 488.847 64.92 522.737C55.06 561.297 27.5 597.277 36.03 636.267C41.29 660.267 59.15 677.347 76.32 692.027C103.107 714.913 130.747 736.353 159.24 756.347C178.34 769.747 198.66 782.787 220.92 784.487C240.52 785.987 259.72 778.537 278.33 771.187C294.59 764.757 311.26 758.067 324.39 745.187C332.96 736.777 339.79 725.927 349.31 719.047C371.67 702.887 400.39 713.127 426.03 720.047C486.53 736.287 551.28 730.357 608.85 703.307C697.16 661.807 764.47 574.657 850.85 527.897C887.99 507.787 928.39 495.307 962.78 469.407C982.155 454.66 998.805 436.642 1011.98 416.167C1037.98 376.057 1052.04 324.917 1047.98 274.857C1043.92 224.797 1021.17 176.557 985.44 148.297C947.19 118.047 898.88 112.396 855.36 94.2365C810.42 75.4765 770.44 43.2365 725.93 23.1065C689.914 6.86316 650.718 -1.11065 611.218 -0.229873C571.718 0.650901 532.916 10.3639 497.66 28.1965C449.22 52.6965 400.12 109.857 346.17 114.197C307.73 117.197 230.74 78.7165 200.72 115.137Z" fill="url(#paint0_linear)"/>
<g id="man-on-bike">
<path id="Vector" opacity="0.1" d="M367.79 615.86C367.789 621.994 367.314 628.119 366.37 634.18C356.77 633.49 346.85 632.49 337.13 631.49C339.289 619.599 339.021 607.394 336.34 595.61C345.81 593.61 355.48 591.7 364.92 589.97C366.833 598.467 367.795 607.15 367.79 615.86V615.86Z" fill="black"/>
<path id="Vector_2" opacity="0.1" d="M393 585.38V606.65H372.19V588.65C379.39 587.4 386.39 586.29 393 585.38Z" fill="black"/>
<path id="Vector_3" d="M258.54 615.49C258.54 615.49 426.62 571.49 440.22 588.28C453.82 605.07 468.23 627.49 425.85 635.49C383.47 643.49 255.37 621.88 255.37 621.88L258.54 615.49Z" fill="#9697A5"/>
<path id="Vector_4" opacity="0.1" d="M341.21 541.37L319.85 560.92C316.067 556.064 311.791 551.614 307.09 547.64L327.03 526.81C332.164 531.249 336.908 536.12 341.21 541.37V541.37Z" fill="black"/>
<path id="Vector_5" opacity="0.1" d="M251.34 628.27C258.415 628.27 264.15 622.535 264.15 615.46C264.15 608.385 258.415 602.65 251.34 602.65C244.265 602.65 238.53 608.385 238.53 615.46C238.53 622.535 244.265 628.27 251.34 628.27Z" fill="black"/>
<path id="Vector_6" opacity="0.1" d="M448.22 628.27C462.364 628.27 473.83 616.804 473.83 602.66C473.83 588.516 462.364 577.05 448.22 577.05C434.076 577.05 422.61 588.516 422.61 602.66C422.61 616.804 434.076 628.27 448.22 628.27Z" fill="black"/>
<path id="Vector_7" d="M449.83 628.27C463.974 628.27 475.44 616.804 475.44 602.66C475.44 588.516 463.974 577.05 449.83 577.05C435.686 577.05 424.22 588.516 424.22 602.66C424.22 616.804 435.686 628.27 449.83 628.27Z" fill="#535461"/>
<path id="Vector_8" d="M442.992 600.736L442.984 600.742C439.977 602.991 439.362 607.253 441.611 610.26L461.937 637.441C464.186 640.448 468.447 641.063 471.455 638.814L471.463 638.808C474.471 636.559 475.085 632.297 472.836 629.29L452.51 602.109C450.261 599.102 446 598.487 442.992 600.736Z" fill="#6C63FF"/>
<path id="Vector_9" opacity="0.1" d="M440.48 596.99L414.48 610.99L406.48 604.99V600.99C415.464 600.352 424.193 597.718 432.03 593.28C434.43 591.92 436.69 590.58 438.5 589.4C439.55 594.03 440.48 596.99 440.48 596.99Z" fill="black"/>
<g id="man on bike">
<path id="Vector_10" d="M387 554.303L344.293 512.159L330.947 525.683L373.654 567.827L387 554.303Z" fill="#535461"/>
<path id="Vector_11" d="M354.48 491.99C354.48 491.99 379.27 478.91 388.85 470.49C394.617 465.444 400.818 460.917 407.38 456.96L438.48 438.03L503.48 433.03L506.48 444.03C506.48 444.03 511.48 460.03 461.48 474.03C411.48 488.03 386.48 510.03 386.48 510.03C386.48 510.03 354.48 520.99 354.48 491.99Z" fill="#DB8B8B"/>
<path id="Vector_12" opacity="0.1" d="M389.13 507.86C387.36 509.21 386.48 509.99 386.48 509.99C386.48 509.99 354.48 520.99 354.48 491.99C354.48 491.99 356.03 491.17 358.48 489.8C360.955 493.831 364.423 497.16 368.551 499.469C372.679 501.778 377.33 502.99 382.06 502.99H385.45L389.13 507.86Z" fill="black"/>
<path id="Vector_13" opacity="0.05" d="M505.54 449.55C502.76 455.44 493.17 465.12 461.48 473.99C420.87 485.36 396.75 501.99 389.13 507.86C387.36 509.21 386.48 509.99 386.48 509.99C386.48 509.99 354.48 520.99 354.48 491.99C354.48 491.99 356.03 491.17 358.48 489.8C365.91 485.73 381.64 476.8 388.82 470.45C394.586 465.403 400.787 460.875 407.35 456.92L438.45 437.99L450.03 437.1L503.45 432.99L506.45 443.99C506.45 443.99 507.15 446.14 505.54 449.55Z" fill="black"/>
<path id="Vector_14" d="M354.98 485.49L328.48 502.99L406.08 567.99C406.08 567.99 417.48 560.99 411.48 552.99C411.48 552.99 391.48 535.99 390.48 511.99L384.48 503.99H381.09C375.358 503.991 369.767 502.211 365.089 498.897C360.412 495.583 356.88 490.898 354.98 485.49V485.49Z" fill="#ABB1D1"/>
<path id="Vector_15" opacity="0.1" d="M505.54 449.55C489.54 441.82 450.48 440.99 450.48 440.99L450.06 437.1L503.48 432.99L506.48 443.99C506.48 443.99 507.15 446.14 505.54 449.55Z" fill="black"/>
<path id="Vector_16" d="M450.48 438.99C450.48 438.99 497.48 439.99 509.48 449.99L503.48 328.99H438.48L450.48 438.99Z" fill="#ABB1D1"/>
<path id="Vector_17" opacity="0.05" d="M450.48 438.49C450.48 438.49 497.48 439.49 509.48 449.49L503.48 328.49H438.48L450.48 438.49Z" fill="black"/>
<path id="Vector_18" d="M488.24 364.95C488.24 364.95 605.89 360.95 608.29 376.16C610.69 391.37 490.64 384.96 490.64 384.96C490.64 384.96 481.04 375.35 488.24 364.95Z" fill="#535461"/>
<path id="Vector_19" opacity="0.05" d="M488.24 364.95C488.24 364.95 605.89 360.95 608.29 376.16C610.69 391.37 490.64 384.96 490.64 384.96C490.64 384.96 481.04 375.35 488.24 364.95Z" fill="black"/>
<path id="Vector_20" d="M393 425.78H372.19V606.66H393V425.78Z" fill="#9697A5"/>
<path id="Vector_21" opacity="0.1" d="M393 425.77V439.7C386.08 440.6 379 441.17 372.19 441.39V425.77H393Z" fill="black"/>
<path id="Vector_22" d="M391.44 410.78C388.52 410.554 385.616 410.164 382.74 409.61C371.46 407.45 343.02 402.92 335.37 410.61C325.77 420.21 328.97 437.02 354.58 439.42C380.19 441.82 424.21 435.42 433.02 425.81C433.02 425.77 417.09 412.75 391.44 410.78Z" fill="#535461"/>
<path id="Vector_23" d="M387.4 475.4L605.9 407.37L613.1 424.18L389 501.01L387.4 475.4Z" fill="#9697A5"/>
<path id="Vector_24" d="M452.23 582.65L609.9 427.38L618.7 440.18L468.23 597.05L452.23 582.65Z" fill="#9697A5"/>
<path id="Vector_25" opacity="0.1" d="M653.58 529.85C648.584 531.142 643.712 532.872 639.02 535.02L629.46 508.31C634.477 506.123 639.644 504.295 644.92 502.84L653.58 529.85Z" fill="black"/>
<path id="Vector_26" d="M680.33 608.26L669.13 614.66L590.99 396.33L587.49 386.56L605.9 376.15L610.51 390.53L680.33 608.26Z" fill="#9697A5"/>
<path id="Vector_27" opacity="0.1" d="M610.51 390.53L590.99 396.33L587.49 386.56L605.9 376.15L610.51 390.53Z" fill="black"/>
<path id="Vector_28" d="M491.44 407.37L601.09 369.75C601.09 369.75 620.3 372.15 613.09 388.16L502.65 420.97C502.65 420.97 485.85 422.57 491.44 407.37Z" fill="#535461"/>
<path id="Vector_29" d="M252.94 606.66L378.59 475.4L382.6 505.81L259.34 618.66L252.94 606.66Z" fill="#9697A5"/>
<path id="Vector_30" d="M565.48 246.99L563.1 277.1C562.826 280.914 562.876 284.744 563.25 288.55C563.56 291.92 563.25 297.82 559.95 306.82C555.713 318.317 553.523 330.467 553.48 342.72V376.99L530.48 372.99C530.48 372.99 531.48 324.99 527.48 316.99C523.48 308.99 530.48 237.99 530.48 237.99L565.48 246.99Z" fill="#DB8B8B"/>
<path id="Vector_31" opacity="0.05" d="M564.3 261.91L563.1 277.1C562.83 280.911 562.883 284.738 563.26 288.54C563.57 291.91 563.26 297.81 559.96 306.82C555.723 318.317 553.533 330.467 553.49 342.72V376.99L530.49 372.99C530.49 372.99 531.49 324.99 527.49 316.99C524.66 311.32 527.34 274.05 529.15 252.78C529.9 244.03 530.49 237.99 530.49 237.99L565.49 246.99L564.3 261.91Z" fill="black"/>
<path id="Vector_32" d="M451.5 476.99L442.85 526.19C441.759 532.759 440.086 539.218 437.85 545.49C432.78 559.35 436.02 578.78 438.48 589.38C439.57 594.06 440.48 597.02 440.48 597.02L414.48 611.02L406.48 605.02V601.02L405.48 512.02C399.48 498.02 401.48 477.02 405.48 469.02C406.617 466.392 407.417 463.63 407.86 460.8C409.86 450.08 410.48 435.02 410.48 435.02C410.48 435.02 426.48 408.02 445.48 426.02C452.48 432.65 455.14 441.32 455.7 449.62C456.68 463.83 451.5 476.99 451.5 476.99Z" fill="#DB8B8B"/>
<path id="Vector_33" opacity="0.1" d="M455.7 449.59C441.83 457.83 417.7 460.16 407.86 460.77C409.86 450.05 410.48 434.99 410.48 434.99C410.48 434.99 426.48 407.99 445.48 425.99C452.48 432.62 455.14 441.29 455.7 449.59Z" fill="black"/>
<path id="Vector_34" d="M489.48 424.99C478.846 430.653 468.797 437.352 459.48 444.99C443.48 457.99 403.48 458.99 403.48 458.99V443.99C404.48 425.99 387.48 405.99 364.48 349.99C349.79 314.23 353.86 293.99 358.72 283.99C361.48 278.34 364.48 275.99 364.48 275.99L489.48 299.99L493.95 313.39L503.48 341.99C503.48 341.99 468.48 343.99 462.48 346.99C456.48 349.99 460.48 376.99 460.48 376.99C454.48 404.99 489.48 424.99 489.48 424.99Z" fill="#ABB1D1"/>
<path id="Vector_35" opacity="0.1" d="M565.48 246.99L564.3 261.91C546.9 266.91 534.48 250.99 534.48 250.99C532.665 251.477 530.882 252.074 529.14 252.78C529.89 244.03 530.48 237.99 530.48 237.99L565.48 246.99Z" fill="black"/>
<path id="Vector_36" opacity="0.1" d="M493.95 313.39C493.48 318.06 493.48 320.99 493.48 320.99C493.48 320.99 470.48 339.99 431.48 310.99C392.48 281.99 357.48 289.99 357.48 289.99C357.48 289.99 357.89 287.67 358.72 283.99C361.48 278.34 364.48 275.99 364.48 275.99L489.48 299.99L493.95 313.39Z" fill="black"/>
<path id="Vector_37" d="M578.96 207.94C576.35 228.29 575.48 253.94 575.48 253.94C552.48 271.94 534.48 248.94 534.48 248.94C512.76 254.77 502.55 273.78 497.74 290.37C495.164 299.344 493.732 308.607 493.48 317.94C493.48 317.94 487.4 322.94 476.2 323.94C465.61 324.83 450.43 322.07 431.48 307.94C392.48 278.94 357.48 286.94 357.48 286.94C357.48 286.94 364.48 246.94 380.48 234.94C396.48 222.94 408.48 207.94 428.48 161.94C448.48 115.94 489.48 126.94 489.48 126.94C489.48 126.94 491.48 117.94 528.48 126.94C537.492 129.302 545.834 133.721 552.85 139.85C572.64 156.49 582.24 182.3 578.96 207.94Z" fill="white"/>
<path id="Vector_38" d="M541.85 149.49C541.8 150.82 541.69 152.3 541.51 153.95C539.51 171.95 537.51 169.95 515.51 173.95C501.83 176.44 494.72 165.01 491.3 156.01C490.062 152.75 489.128 149.382 488.51 145.95L536.51 137.95C536.51 137.95 542.26 136.34 541.85 149.49Z" fill="#DB8B8B"/>
<path id="Vector_39" opacity="0.05" d="M497.74 290.42C495.164 299.394 493.732 308.657 493.48 317.99C493.48 317.99 487.4 322.99 476.2 323.99C475.884 323.353 475.643 322.682 475.48 321.99C473.48 312.99 458.48 296.99 458.48 296.99C448.48 287.99 446.48 271.99 446.48 271.99L429.98 223.49L424.48 218.99C424.48 218.99 447.48 200.99 467.48 215.99C487.48 230.99 481.48 262.99 481.48 262.99L485.48 273.99C489.63 277.49 493.85 283.66 497.74 290.42Z" fill="black"/>
<path id="Vector_40" d="M427.48 217.99L449.48 270.99C449.48 270.99 451.48 286.99 461.48 295.99C461.48 295.99 476.48 311.99 478.48 320.99C480.48 329.99 508.48 353.99 508.48 353.99C508.48 353.99 534.48 377.99 536.48 386.99C536.48 386.99 560.48 393.99 557.48 407.99C557.48 407.99 575.48 389.99 557.48 372.99C539.48 355.99 515.48 320.99 515.48 320.99C515.48 320.99 501.48 283.99 488.48 272.99L484.48 261.99C484.48 261.99 490.48 229.99 470.48 214.99C450.48 199.99 427.48 217.99 427.48 217.99Z" fill="#DB8B8B"/>
<path id="Vector_41" opacity="0.1" d="M470.48 175.99L484.48 230.99C484.48 230.99 441.48 237.99 432.48 230.99C423.48 223.99 406.48 221.99 406.48 221.99C406.48 221.99 424.48 169.99 434.48 163.99C444.48 157.99 470.48 175.99 470.48 175.99Z" fill="black"/>
<path id="Vector_42" d="M470.48 173.99L484.48 228.99C484.48 228.99 441.48 235.99 432.48 228.99C423.48 221.99 406.48 219.99 406.48 219.99C406.48 219.99 424.48 167.99 434.48 161.99C444.48 155.99 470.48 173.99 470.48 173.99Z" fill="white"/>
<path id="Vector_43" opacity="0.1" d="M541.85 148.49C539.049 152.356 535.487 155.609 531.383 158.047C527.278 160.485 522.718 162.058 517.983 162.669C513.248 163.28 508.439 162.915 503.85 161.598C499.261 160.281 494.99 158.039 491.3 155.01C490.062 151.75 489.128 148.382 488.51 144.95L536.51 136.95C536.51 136.95 542.26 135.34 541.85 148.49Z" fill="black"/>
<path id="Vector_44" d="M548.48 126.99C548.48 136.273 544.793 145.175 538.229 151.739C531.665 158.303 522.763 161.99 513.48 161.99C504.197 161.99 495.295 158.303 488.731 151.739C482.168 145.175 478.48 136.273 478.48 126.99C478.48 126.41 478.48 125.83 478.48 125.25C478.711 115.967 482.62 107.157 489.346 100.756C496.073 94.3555 505.067 90.8893 514.35 91.12C523.633 91.3508 532.443 95.2595 538.844 101.986C545.245 108.713 548.711 117.707 548.48 126.99V126.99Z" fill="#DB8B8B"/>
<path id="Vector_45" opacity="0.1" d="M548.48 126.99C548.483 130.216 548.039 133.426 547.16 136.53C544.455 137.12 541.633 136.861 539.08 135.79C535.34 134.32 532.13 131.79 528.54 129.97C518.43 124.85 506.4 125.86 495.2 127.55C489.64 128.39 483.33 129.17 478.96 125.63C478.81 125.511 478.666 125.385 478.53 125.25C478.761 115.967 482.67 107.157 489.396 100.756C496.123 94.3555 505.117 90.8893 514.4 91.12C523.683 91.3508 532.493 95.2595 538.894 101.986C545.295 108.713 548.761 117.707 548.53 126.99H548.48Z" fill="black"/>
<path id="Vector_46" opacity="0.05" d="M384.98 234.49C384.98 234.49 410.98 241.49 418.98 259.49C426.98 277.49 448.62 280.78 448.62 280.78" fill="black"/>
</g>
<path id="Vector_47" d="M482.98 630.49H422.98V649.49H482.98V630.49Z" fill="#535461"/>
<path id="Vector_48" d="M431.99 595.23C437.36 592.23 442.07 589.23 442.48 587.99C442.48 587.99 456.03 602.29 468.1 606.73C472.158 608.229 476.044 610.16 479.69 612.49C484.47 615.49 491.29 619.02 497.48 619.02C497.48 619.02 511.48 631.02 484.48 633.02C457.48 635.02 394.48 628.02 394.48 628.02L398.48 603.02C410.167 603.705 421.804 601 431.99 595.23Z" fill="#ABB1D1"/>
</g>
<g id="left-wheel">
<path id="Vector_49" d="M245.56 518.522L251.83 616.462L251.96 616.672L258.28 614.472L287.36 529.622L333.61 562.412L259.94 615.822L259.87 616.032L259.45 616.182L254.7 619.632L331.94 662.942L350.86 642.142L347.86 622.642L259.04 621.022V619.022L349.52 620.642L352.94 642.782L327.04 671.242L288.29 716.442L287.6 714.572L279.4 723.572L248.94 718.112V719.322L246.94 719.262V717.752L201.58 709.632L243.87 625.022L250.04 620.552V620.052V619.492L152.24 653.572L163.85 562.362L246.85 615.232L249.77 616.872L200.83 537.992L245.56 518.522ZM249.56 612.862L243.71 521.482L203.66 538.862L249.56 612.862ZM330.14 562.432L288.35 532.802L261.01 612.542L330.14 562.432ZM247.82 618.092L245.73 616.922L165.38 565.722L154.58 650.592L247.82 618.092ZM254.92 625.292L252.41 621.242L251.97 621.562L248.97 716.092L278.71 721.412L286.87 712.412L254.92 625.292ZM330.34 664.352L255.5 622.352L256.8 624.482L288.38 710.752L325.57 669.882L330.34 664.352ZM246.94 715.742L249.94 623.022L245.42 626.302L204.51 708.122L246.94 715.742Z" fill="#535461"/>
<path id="Vector_50" d="M135.87 645.562C139.881 663.381 148 680.017 159.58 694.142C163.879 699.391 168.62 704.262 173.75 708.702C193.476 725.733 218.299 735.732 244.323 737.131C270.347 738.529 296.098 731.247 317.536 716.427C338.974 701.607 354.884 680.089 362.77 655.25C370.656 630.41 370.071 603.655 361.107 579.184C352.143 554.713 335.308 533.91 313.243 520.042C291.178 506.173 265.133 500.023 239.195 502.558C213.257 505.092 188.895 516.167 169.932 534.044C150.969 551.921 138.478 575.588 134.42 601.332C133.476 607.393 133.001 613.518 133 619.652C132.993 628.368 133.956 637.058 135.87 645.562ZM251.06 531.212C269.292 531.231 287.076 536.865 301.993 547.347C316.911 557.83 328.238 572.652 334.434 589.799C340.631 606.946 341.396 625.586 336.625 643.183C331.855 660.78 321.781 676.481 307.772 688.15C293.764 699.82 276.502 706.892 258.333 708.406C240.163 709.919 221.969 705.799 206.223 696.608C190.478 687.416 177.945 673.598 170.33 657.032C162.714 640.466 160.385 621.957 163.66 604.022C167.41 583.579 178.21 565.097 194.179 551.794C210.148 538.491 230.276 531.208 251.06 531.212V531.212Z" fill="#535461"/>
<path id="Vector_51" d="M251.06 607.242C243.985 607.242 238.25 612.977 238.25 620.052C238.25 627.127 243.985 632.862 251.06 632.862C258.135 632.862 263.87 627.127 263.87 620.052C263.87 612.977 258.135 607.242 251.06 607.242Z" fill="#535461"/>
</g>
<g id="right-wheel">
<path id="Vector_52" d="M674.81 602.78C681.885 602.78 687.62 608.516 687.62 615.59C687.62 622.665 681.885 628.4 674.81 628.4C667.735 628.4 662 622.665 662 615.59C662 608.516 667.735 602.78 674.81 602.78Z" fill="#535461"/>
<g id="wheel">
<g id="wheel_2">
<path id="Vector_53" d="M681.797 512.98L675.537 610.88L675.407 611.09L669.087 608.89L639.997 524.08L593.747 556.88L667.437 610.29L667.507 610.5L667.927 610.65L672.677 614.1L595.437 657.41L576.507 636.61L579.507 617.11L668.307 615.53V613.53L577.827 615.15L574.427 637.26L600.317 665.71L639.037 710.88L639.727 709.01L647.927 718.01L678.467 712.54V713.75L680.467 713.69V712.18L725.827 704.06L683.497 619.41L677.327 614.94V614.44V613.88L775.137 647.96L763.527 556.75L680.527 609.62L677.607 611.26L726.547 532.37L681.797 512.98ZM677.797 607.32L683.647 515.94L723.697 533.32L677.797 607.32ZM597.227 556.88L639.017 527.25L666.357 606.99L597.227 556.88ZM679.547 612.54L681.637 611.37L761.987 560.17L772.787 645.04L679.547 612.54ZM672.447 619.74L674.957 615.69L675.397 616.01L678.397 710.54L648.657 715.88L640.497 706.88L672.447 619.74ZM597.057 658.79L671.897 616.79L670.597 618.92L639.017 705.19L601.817 664.31L597.057 658.79ZM680.427 710.18L677.427 617.49L681.947 620.77L722.857 702.59L680.427 710.18Z" fill="#535461"/>
</g>
<path id="Vector_54" d="M675.757 730.4C665.144 730.412 654.578 728.986 644.347 726.16C639.071 724.705 633.904 722.877 628.887 720.69C602.157 709.103 580.674 688.014 568.594 661.502C556.514 634.991 554.697 604.941 563.492 577.167C572.287 549.393 591.071 525.867 616.209 511.142C641.348 496.416 671.054 491.537 699.582 497.449C728.109 503.36 753.431 519.641 770.648 543.143C787.865 566.646 795.754 595.698 792.789 624.68C789.823 653.663 776.215 680.516 754.595 700.044C732.975 719.572 704.881 730.389 675.747 730.4H675.757ZM675.357 524.31C655.076 524.318 635.408 531.264 619.62 543.993C603.831 556.722 592.872 574.47 588.562 594.287C584.252 614.105 586.851 634.801 595.928 652.938C605.004 671.074 620.011 685.56 638.457 693.99C643.149 696.138 648.021 697.868 653.017 699.16C665.229 702.33 677.977 702.863 690.411 700.723C702.845 698.583 714.681 693.819 725.13 686.749C735.58 679.679 744.404 670.464 751.015 659.718C757.627 648.972 761.873 636.941 763.473 624.426C765.073 611.911 763.989 599.198 760.293 587.135C756.598 575.071 750.375 563.933 742.04 554.462C733.704 544.99 723.447 537.403 711.951 532.204C700.455 527.005 687.984 524.314 675.367 524.31H675.357Z" fill="#535461"/>
</g>
</g>
<g id="heat">
<path id="Vector_55" d="M458.624 107.927C460.754 114.607 470.984 114.817 476.234 119.737C478.964 122.297 480.234 126.077 483.234 128.357C487.404 131.537 493.424 130.837 498.734 130.077C509.424 128.557 520.904 127.647 530.544 132.257C533.964 133.887 537.034 136.167 540.604 137.497C544.174 138.827 548.604 138.987 551.504 136.627C553.824 134.737 554.674 131.627 556.774 129.547C558.404 127.907 560.674 126.987 562.534 125.547C566.614 122.467 568.374 117.447 569.534 112.647C571.934 102.767 572.624 92.1167 568.534 82.7467C564.444 73.3767 554.604 65.7467 543.864 66.2367C540.574 66.3867 537.364 67.2367 534.084 67.5967C525.534 68.4667 517.084 65.5967 508.504 65.1067C506.015 64.8039 503.49 65.1483 501.174 66.1067C499.427 67.0775 497.92 68.4273 496.764 70.0567C492.836 75.2021 490.146 81.1836 488.904 87.5367C487.904 92.3267 487.854 96.6667 481.984 97.4067C475.314 98.2867 454.114 93.7967 458.624 107.927Z" fill="#472727"/>
</g>
</g>
<defs>
<linearGradient id="paint0_linear" x1="807.072" y1="138.002" x2="-127.928" y2="780.002" gradientUnits="userSpaceOnUse">
<stop stop-color="#63FFF6"/>
<stop offset="1" stop-color="#A90CF2" stop-opacity="0.96"/>
</linearGradient>
<clipPath id="clip0">
<rect width="1057.7" height="784.98" fill="white"/>
</clipPath>
</defs>
</svg>
